<svg xmlns="http://www.w3.org/2000/svg" width="530.7211" height="95.5351" viewBox="0 0 530.7211 95.5351"><defs><style>.cls-1{fill:#fff;}.cls-2{fill:#ed7028;}.cls-3{opacity:0.3;}.cls-4{fill:#393939;}</style></defs><title>Asset 1</title><g id="Layer_2" data-name="Layer 2"><g id="Ebene_1" data-name="Ebene 1"><path class="cls-1" d="M495.6175,25.3279a35.1036,35.1036,0,1,0,35.1036,35.1036A35.1036,35.1036,0,0,0,495.6175,25.3279ZM518.137,63.359q-3.7516,3.8419-10.3242,3.8416a13.06,13.06,0,0,1-9.9262-4.0071q-3.8044-4.007-3.8039-10.65a14.7678,14.7678,0,0,1,3.8963-10.6618,13.4579,13.4579,0,0,1,10.1782-4.0661q6.3879,0,10.0588,3.8533t3.6713,10.9455Q521.8873,59.5174,518.137,63.359Z"/><path class="cls-1" d="M370.055,0q-35.848,0-35.848,39.517V94.7326h12.0295V39.7056l46.1333.9023V94.7326h12.03V38.1337Q404.3994,0,370.055,0Z"/><path class="cls-1" d="M253.556,38.4311C253.556,11.4079,236.9036,0,223.5984,0h-28.39V24.5531a9.0111,9.0111,0,1,1,0,12.0977v56.518h12.03V73.2811h8.6612a15.231,15.231,0,0,1,9.2026,2.7968q3.8494,2.7969,8.4809,10.5559l2.8944,6.535h15.1612l-5.8457-8.58a69.345,69.345,0,0,0-7.2484-10.2853,19.0952,19.0952,0,0,0-6.6456-4.6314v-.3006C245.6926,65.522,253.556,51.3429,253.556,38.4311Z"/><circle class="cls-1" cx="356.9442" cy="52.0629" r="4.0766"/><circle class="cls-1" cx="380.4802" cy="52.0629" r="4.0766"/><path class="cls-1" d="M435.1972,56.22q0,21.6065-14.2447,21.6065a18.94,18.94,0,0,1-11.731-3.89v18.614a34.6658,34.6658,0,0,0,12.9878,2.3941q15.801,0,24.2706-9.8158,8.4671-9.8157,8.4684-28.19V.618H435.1972Z"/><path class="cls-1" d="M315.6181,0V56.96q0,27.0664-22.6758,27.0666-23.4577,0-23.4576-27.9687V0H257.4552V56.599q0,38.1336,34.3443,38.1336,35.848,0,35.8481-39.5171V0Z"/><path class="cls-1" d="M183.9735,50.7947q-5.6861-6.1039-15.1879-7.1876v-.2406a23.3843,23.3843,0,0,0,11.9988-8.3605,22.2484,22.2484,0,0,0,4.3614-13.5935,18.9114,18.9114,0,0,0-7.338-15.5481Q170.47,0,158.2,0H130.8325V93.1688h28.0888q13.4732,0,22.1038-7.4283t8.6317-19.4578Q189.6568,56.9,183.9735,50.7947Zm-12.091,27.4875q-5.1406,4.3617-14.5852,4.3607H142.862v-32.48h12.4505q21.7134,0,21.7134,15.9992Q177.0259,73.9216,171.8825,78.2822Z"/><path class="cls-1" d="M57.3476,93.7428a1.6052,1.6052,0,0,1-.6016-.117c-.2882-.1164-7.13-2.95-13.3534-11.4565a49.541,49.541,0,0,1-7.936-17.4378C33.4183,56.5255,32.96,47.13,34.0938,36.8072a1.606,1.606,0,0,1,1.775-1.42,41.2758,41.2758,0,0,0,7.8023-.0493c3.7476-.3866,8.8236-1.5119,11.7231-4.6766a2.656,2.656,0,0,1,1.9534-.86h0a2.6561,2.6561,0,0,1,1.9533.86c2.8995,3.1647,7.9755,4.29,11.7231,4.6766a41.2561,41.2561,0,0,0,7.8033.0492,1.6066,1.6066,0,0,1,1.774,1.4205c1.134,10.3232.6755,19.7183-1.3628,27.9243a49.541,49.541,0,0,1-7.936,17.4378c-6.2231,8.5062-13.0652,11.34-13.3534,11.4565A1.6048,1.6048,0,0,1,57.3476,93.7428Z"/><path class="cls-2" d="M33.07,40.1588v.01h.74v-.01c-.1252-.0073-.2465.0067-.3708.0037C33.3157,40.1655,33.1976,40.1515,33.07,40.1588Z"/><path class="cls-1" d="M23.5536.6081c.4353.0158.5106.0862.5575.5189-11.4377,9.8439-8.61,24.7627-6.9244,28.8945-10.14.2226-8.4088-12.4989-8.5054-12.5024C-3.914,36.0758,23.2845,36.9,27.073,36.9c.0064.0876,1.5138,14.657,1.5926,17.8916C4.0774,54.7912-18.7368,21.358,23.5536.6081Z"/><path class="cls-1" d="M91.0417.6081c-.4354.0158-.5106.0862-.5575.5189,11.4377,9.8439,8.61,24.7627,6.9244,28.8945,10.14.2226,8.4088-12.4989,8.5054-12.5024C118.5092,36.0758,91.3108,36.9,87.5222,36.9c-.0064.0876-1.5137,14.657-1.5925,17.8916C110.5179,54.7912,133.3321,21.358,91.0417.6081Z"/><g class="cls-3"><path class="cls-4" d="M80.6013,36.8072a1.6063,1.6063,0,0,0-1.7738-1.4205,41.2576,41.2576,0,0,1-7.8034-.0492c-3.7476-.3867-8.8236-1.5119-11.723-4.6766a2.656,2.656,0,0,0-1.9535-.86V93.7427a1.603,1.603,0,0,0,.6015-.1169c.2883-.1165,7.13-2.95,13.3535-11.4566a49.54,49.54,0,0,0,7.9361-17.4377C81.2769,56.5255,81.7355,47.13,80.6013,36.8072Z"/></g></g></g></svg>